<svg xmlns="http://www.w3.org/2000/svg" width="752pt" height="752pt" viewBox="0 0 752 752"><path d="M594.18 574.35a2.05 2.05 0 0 1-.55 2.793 10.7 10.7 0 0 1-1.43 2.82c-4.231 6.051-9.008 13.051-15.707 16.56-7.274 3.812-12.613-3.903-15.168-9.473-3.79-8.172-5.754-14.617-12.238-21.477-6.145-6.512-12.684-12.637-18.871-19.098-24.79-25.848-48.043-53.977-74.996-77.79-8.223-7.25-17.715-11.89-26.422-18.405a106 106 0 0 1-9.954-8.684.9.9 0 0 1-.183.23 5.66 5.66 0 0 1-7.16 1.852c-3.395-1.871-5.938-4.621-9.196-6.695-2.445-1.574-6.004-3.86-5.55-7.278l.003-.003a10.33 10.33 0 0 1 2.961-6.442c-1.363-1.297-2.75-2.59-4.136-3.883-1.868 1.918-3.88 4.297-6.813 3.258a18.2 18.2 0 0 1-6.926-5.355c-1.922-1.989-6.61-5.22-6.492-8.453a10.47 10.47 0 0 1 3.211-5.68c-.254-.277-.531-.531-.789-.79-.254-.253-.598-.577-.875-.85a9.21 9.21 0 0 1-7.969 3.23c-3.328-.414-6.262-4.07-8.242-6.442-1.645-1.988-3.145-4.16-4.898-6.054-1.016-1.086-2.793-2.38-3.165-3.903-.738-2.96 1.961-4.64 4.02-6.257a139 139 0 0 1-1.918-1.825v.004a13 13 0 0 1-7.691 3.254 4.48 4.48 0 0 1-3.672-1.547c-.696-.972-2.493-1.18-3.328-2.129v.004a12.8 12.8 0 0 1-4.442-9.492 7.1 7.1 0 0 1 3.477-5.445c-.668-.668-1.317-1.34-1.989-2.008-.347-.371-.718-.738-1.085-1.11-1.5 2.47-3.7 6.051-6.883 5.243-4.781-1.227-7.828-4.899-11.57-7.809-1.895-1.48-6.074-4.457-5.797-7.344.371-3.765 3.234-5.449 5.918-7.648-1.176-1.086-2.332-2.191-3.512-3.277-1.851 1.87-5.125 5.148-7.851 4.07-3.465-1.34-6.051-5.27-8.59-7.879-1.989-2.031-6.211-4.871-6.418-8.062-.184-3 2.629-5.18 4.441-6.625a884 884 0 0 0-4.664-4.782c-2.75 3.79-5.312 6.235-8.223 5.657-4.78-.946-10.07-5.864-13.37-9.25-2.934-3-9.516-7.438-8.614-12.31.762-3.996 2.86-5.55 7.11-7.769-1.524-1.57-3.07-3.14-4.594-4.73-3.188 3.347-5.496 6.765-9.7 6.66-3.554-.094-7.878-5.27-10.094-7.555-2.609-2.652-6.972-4.988-7.207-9.031v-.3h-.003a9.99 9.99 0 0 1 8.457-8.407 2972 2972 0 0 1-11.47-11.777h-.003a12.8 12.8 0 0 1-7.485 6.422c-4.039 1.11-7.23-2.563-10.438-4.645-4.992-3.234-12.887-8.613-14.39-14.668-.946-3.785 4.363-7.398 7.597-9.77a278 278 0 0 1-4.11-3.534v.003a10.85 10.85 0 0 1-9.28 6.29c-3.329.207-8.508-4.735-10.415-7.032-2.89-3.464-8.433-7.183-9.214-11.8-.649-3.7 3.878-6.997 6.816-9.352a120 120 0 0 1-3.766-4.23c-4.25-4.966-9.68-8.59-13.05-14.228-3.536-5.918 1.038-12.609 4.988-16.84 6.695-7.18 15.168-18.059 25.129-20.809l-.004.004a1.9 1.9 0 0 1 1.707-.597c.23.023.437.07.668.113h.004a.2.2 0 0 1 .113-.024 2.45 2.45 0 0 1 1.824.438c7.274 2.2 11.16 9.621 16.812 14.668 1.387 1.246 2.774 2.543 4.184 3.812 2.422-2.84 5.816-7.25 9.469-6.511 4.457.902 8.406 6.488 11.574 9.515 2.218 2.125 7.062 7.16 6.761 10.578v-.004a10.73 10.73 0 0 1-5.77 8.778c1.016 1.175 2.22 2.472 3.329 3.855 2.797-3.578 5.96-7.598 10.785-6.258 2.336.649 4.508 3.996 6.101 5.657v.003a68 68 0 0 1 6.766 8.684c1.988 2.793 6.29 7.438 4.133 11.098a15.8 15.8 0 0 1-6.66 6.29c3.746 3.698 7.527 7.343 11.27 11.034 2.683-3.187 5.062-7.738 9.886-7.344 3.489.278 7.137 6.47 9.403 8.782 2.492 2.59 6.261 6.191 6.289 10.047 0 3.257-3.813 6.12-6.332 8.242 1.48 1.55 2.96 3.074 4.441 4.62a10.26 10.26 0 0 1 7.645-6.46c4.754-.762 9.328 5.887 12.03 8.96 3.231 3.65 8.141 8.571 9.005 13.536.484 2.906-2.82 6.21-5.75 7.988l4.574 4.852c1.8-2.102 3.648-4.48 6.66-4.227 3.168.278 5.848 4.645 7.832 6.695a29.8 29.8 0 0 1 7.602 8.88c.968 2.656-2.243 5.847-4.231 7.667 1.086 1.176 2.172 2.332 3.258 3.512 2.055-2.562 4.937-6.816 8.36-5.59 3.648 1.34 5.335 4.711 7.769 7.457 2.433 2.75 6.445 6.79 6.402 10.812-.047 2.93-2.84 4.617-5.219 6.004.969 1.04 1.918 2.102 2.89 3.164l-.003.004a6.53 6.53 0 0 1 6.023-3.305 14.2 14.2 0 0 1 8.778 4.735c1.109 1.039 1.48 2.68 2.543 3.762l-.004.003a4.5 4.5 0 0 1 1.16 3.88 12.25 12.25 0 0 1-3.652 7.183c.578.648 1.156 1.273 1.73 1.922 1.688-2.035 3.445-4.785 6.445-3.953 1.547.414 2.723 2.195 3.832 3.21 1.942 1.755 4.07 3.258 5.985 5.012 2.308 2.125 6.098 4.809 6.445 8.223a11.46 11.46 0 0 1-3.86 8.266c.528.578 1.04 1.156 1.575 1.73 1.64-1.683 3.95-4.203 6.789-3.414 3.234.899 5.106 4.711 7.398 6.926 2.036 1.941 5.243 4.48 5.27 7.621s-1.781 4.414-3.606 6.215c1.27 1.406 2.559 2.793 3.832 4.176l.004.003a9.28 9.28 0 0 1 7.528-2.703c3.511.278 5.129 4.344 6.816 6.836a18.7 18.7 0 0 1 2.793 4.184c.645 1.894 2.074 3.187 2.723 5.058.996 2.887.625 3.7-1.895 6.211a135.3 135.3 0 0 1 16.891 24.086c6.66 12.148 17.461 22.29 27.23 32.012 9.418 9.375 18.891 18.66 27.691 28.664 8.477 9.582 18.383 17.184 27.32 26.215 9.332 9.418 17.88 19.883 28.043 28.406 3.094 2.59 6.29 4.918 9.375 7.344 4.551 2.961 10.555 6.902 11.34 11.938.09.176.227.313.317.5zm-18.199 17.23c8.848-6.398 16.98-17.344 4.07-25.75v-.004a2.34 2.34 0 0 1-.898-1.2c-5.313-4.339-11.133-8.292-15.82-12.948-9.25-9.192-17.758-19.238-27.602-27.81-18.547-16.07-34.848-34.917-52.035-52.448-7.879-8.016-17.508-16.512-23.004-26.47h.004a133.4 133.4 0 0 0-20.855-29.675c-16.168-16.648-31.664-34.461-47.277-51.691-32.887-36.352-66.445-72.012-100.27-107.41-8.961-9.379-17.691-19.496-27.438-28.043-5.844-5.078-14.875-11.754-18.641-18.59-6.29-11.406-15.055-19.47-24.18-28.801-3.7-3.79-8.293-7.18-11.688-11.176-3.235-3.766-6.883-9.75-12.31-10.762-8.546 2.629-27.046 18.27-28.433 26.492-1.11 6.66 11.527 16.352 15.777 20.719l13.973 14.32c8.726 8.937 18.289 15.223 26.906 24.05 9.62 9.86 18.43 20.415 28.086 30.23 38.477 39.149 77.898 77.208 117.39 115.39 20.348 19.7 39.262 42.77 62.75 58.829 10.828 7.398 20.922 13.277 30.418 22.633 9.351 9.195 18.152 18.94 27.297 28.363 20.164 20.762 40.629 41.156 60.188 62.527v-.008a52 52 0 0 1 9.62 12.844c1.724 3.664 5.419 22.582 13.962 16.395zm-133.26-180.01c1.41-2.96-2.469-6.348-3.812-8.363-2.38-3.485-3.903-7.645-7.77-4.203 3.871 4.183 7.707 8.41 11.582 12.566m-20.273-24.617c1.984-2.148-1.156-4.441-2.402-5.656-1.688-1.621-3.098-3.489-4.762-5.13-1.34-1.339-3.164.462-3.879 1.294 3.258 3.582 6.512 7.137 9.793 10.73.418-.41.86-.8 1.25-1.238m-7.023 51.578a1 1 0 0 1 .16-.09c-.922-.902-1.824-1.8-2.723-2.68-3.234-3.164-6.516-6.261-9.793-9.351-4.246 4.297.738 5.918 3.95 8.777 1.94 1.723 6.769 4.953 8.405 3.344zm-11.754-69.617a4.66 4.66 0 0 0 .46-6.906c-1.824-1.852-3.949-3.395-5.918-5.078-1.687-1.41-3.257-3.004-4.918-4.442h-.003c-.36.301-.688.645-.973 1.02-.39.508-.828.992-1.27 1.48q6.294 6.957 12.621 13.926zm-12.38 48.434c.348-.371.669-.695.993-1.04-3.512-3.304-7-6.636-10.461-9.987-1.274 1.109-2.219 2.078-.926 3.394 1.617 1.664 3.348 3.281 4.871 5.012.996 1.14 3.582 4.746 5.524 2.62m-6.074-74.949c.114-.922-1.297-2.379-1.8-3.277h-.004a10.8 10.8 0 0 0-4.778-4.18c-1.988-.898-3.14.46-4.16 1.895 2.863 3.14 5.754 6.289 8.617 9.421a6.86 6.86 0 0 0 2.125-3.859m-17.355 56.633c1.942 1.715 4.043.555 5.684-.785-4.48-4.367-9.031-8.684-13.555-12.98-.832.695-1.715 1.34-2.477 2.078-.023.023-.023.023-.043.023h-.003q.363.27.667.602c1.711 1.852 3.188 3.836 4.81 5.754l.003-.004a46.5 46.5 0 0 0 4.914 5.312m-2.59-72.289c2.31-1.363 4.368-2.102 2.59-5.008v-.004a59 59 0 0 0-4.71-6.12 34 34 0 0 0-3.536-4.227c-1.687-1.594-3.953 1.617-5.383 3.511 3.684 3.95 7.383 7.875 11.04 11.848zm-17.39 52.059v-.004a6.5 6.5 0 0 0 3.511-1.68 701 701 0 0 1-9.097-8.918c-1.454.993-3.047 2.309-1.918 4.07a12.7 12.7 0 0 0 4.132 4.81c.91.523 2.434 1.812 3.371 1.718zm-3.106-74.09c1.293-1.062 2.54-2.172 1.11-3.625l-5.473-5.613c-1.617-1.664-2.797-3.813-4.442-5.477-.441-.437-1.894 1.273-2.77 2.356q5.803 6.168 11.575 12.359m-12.21 53.836c.023-.047.07-.07.112-.117-3.812-3.762-7.738-7.434-11.66-11.098-1.894 1.363-5.496 3.765-3.816 5.406 1.34 1.316 2.703 2.473 4.137 3.648l.004-.003a40 40 0 0 0 6.003 4.847c3.063 1.703 3.622-.168 5.235-2.683zm-10.376-77.785c2.031-.766 5.125-3.812 3.7-5.797-1.778-2.492-3.7-5.312-5.704-7.598-2.129-2.425-4.48-4.644-6.723-6.953-3.699-3.812-6.261-.07-7.527 3.305a2694 2694 0 0 1 16.254 17.043m-15.168 59.68c.625.555 2.754-1.574 3.836-2.727-3.188-3-6.238-6.14-9.281-9.25l-2.633-2.699c-1.828 1.434-3.766 2.746-2.613 3.926 1.824 1.871 3.675 3.762 5.523 5.656 1.672 1.696 3.406 3.473 5.18 5.09zm-12.156-88.25c1.895-1.594 5.383-4.574 4.645-5.797v-.004a41.7 41.7 0 0 0-5.938-7.207c-.945-.969-5.148-6.902-6.93-5.586a30.8 30.8 0 0 0-4.57 5.43 370 370 0 0 1 4.27 4.316c2.867 2.934 5.671 5.91 8.523 8.848m-12.816 66.352c2.125 1.086 4.754-1.754 6.328-3.277-6.441-6.63-11.18-11.47-16.605-17.047-3.512 1.133-8.14 3.258-4.25 7.23a73 73 0 0 0 6.88 6.996 57 57 0 0 0 7.647 6.098m-12.543-101.55c.996-1.25-2.77-6.215-3.488-7.398a51.9 51.9 0 0 0-10.117-11.922c-1.434-1.246-4.942 3.093-6.883 5.59h.004c.207.44.383.898.531 1.363 1.504 5.265 6.902 8.914 10.551 12.656 1.317 1.34 2.633 2.652 3.953 3.969a11.97 11.97 0 0 0 5.45-4.258zm-13.512 73.145c1.363-1.316 3.047-2.266 4.367-3.605-4.23-4.34-9.074-9.305-12.309-12.61-3.258-.046-8.754 4.11-5.797 6.813a140 140 0 0 1 5.657 5.426c1.8 1.875 5.289 6.633 8.082 3.976m-16.098-98.297c7.598-3.535 1.871-9.957-2.355-13.688-2.055-1.8-3.856-3.79-5.817-5.68-2.289-2.242-5.36 1.27-7.32 3.649 5.379 5.05 10.668 10.336 15.492 15.719M229.71 254.74c-.414-.418-.828-.832-1.227-1.273-5.125-5.243-10.672-9.746-16.14-14.34-3.028 2.195-7.922 5.336-4.81 8.507v.004a46 46 0 0 0 11.204 9.676c2.77 1.383 5.078 4.317 7.715 1.777a10.05 10.05 0 0 0 3.187-4.246zm-28.859-25.016h.004q.072-.131.16-.25a110 110 0 0 1-5.55-5.36c-3.278-3.327-6.63-6.66-9.887-10.065-2.422 1.894-6.328 5.035-4.04 7.398 1.895 1.941 3.813 3.86 5.551 5.938 3.664 4.414 10.082 10.44 13.777 2.355z"/><path d="M582 575.76a7.4 7.4 0 0 1-2.66 9.422 7.944 7.944 0 0 1-10.043-2.148 6.22 6.22 0 0 1-1.04-5.266 10.6 10.6 0 0 1 3.137-4.688 7.15 7.15 0 0 1 9.864 1.778c.328.222.582.535.742.902m-4.898 5.379a2.71 2.71 0 0 0 .879-3.07c-.973-1.086-2.754-2.516-3.766-1.227-.832 1.063-2.172 2.172-1.156 3.559.46.668 1.34.644 2.03.968a1.75 1.75 0 0 0 2.013-.23"/></svg>